<?xml version="1.0" encoding="utf-8"?>
<!-- Generator: Adobe Illustrator 28.1.0, SVG Export Plug-In . SVG Version: 6.00 Build 0)  -->
<svg version="1.1" id="Слой_1" xmlns="http://www.w3.org/2000/svg" xmlns:xlink="http://www.w3.org/1999/xlink" x="0px" y="0px"
	 viewBox="0 0 400 400" style="enable-background:new 0 0 400 400;" xml:space="preserve">
<style type="text/css">
	.st0{stroke:#000000;stroke-width:3;stroke-linecap:round;stroke-linejoin:round;stroke-miterlimit:10;}
</style>
<g>
	<g>
		<path class="st0" d="M117.19,156.54h7.91l1.23,33.19v18h-9.14V156.54z M120.5,156.54h8.37l11.14,36.56l11.04-36.56h7.63
			l-15.19,51.19h-7.07L120.5,156.54z M154.81,156.54h7.95v51.19h-9.11v-18L154.81,156.54z"/>
		<path class="st0" d="M171.16,159.77c0-1.43,0.44-2.61,1.34-3.53c0.89-0.93,2.11-1.39,3.66-1.39s2.75,0.46,3.62,1.39
			c0.87,0.93,1.3,2.1,1.3,3.53c0,1.38-0.43,2.55-1.3,3.5c-0.87,0.95-2.07,1.42-3.62,1.42s-2.77-0.47-3.66-1.42
			C171.6,162.32,171.16,161.15,171.16,159.77z M180.65,169.69v38.04h-9.04v-38.04H180.65z"/>
		<path class="st0" d="M197.91,153.69v54.04h-9v-54.04H197.91z M217.78,169.69l-13.43,18.67l-8.16,9.14l-2.74-7.35l6.08-8.79
			l7.45-11.67H217.78z M208.53,207.72l-8.82-17.65l5.94-6.12l13.25,23.77H208.53z"/>
		<path class="st0" d="M237.78,208.43c-2.53,0-4.78-0.39-6.73-1.16c-1.96-0.77-3.62-1.9-4.97-3.38c-1.36-1.48-2.4-3.29-3.11-5.45
			c-0.72-2.16-1.07-4.63-1.07-7.42v-3.41c0-3.14,0.36-5.88,1.09-8.21c0.73-2.33,1.74-4.27,3.04-5.82s2.87-2.7,4.71-3.46
			c1.84-0.76,3.87-1.14,6.1-1.14c2.39,0,4.48,0.39,6.28,1.18c1.79,0.79,3.27,1.95,4.45,3.5c1.17,1.55,2.04,3.46,2.62,5.75
			c0.57,2.29,0.86,4.93,0.86,7.93v4.32h-25.1v-6.57h16.24v-0.88c-0.05-1.64-0.24-3.04-0.58-4.18c-0.34-1.15-0.9-2.02-1.67-2.62
			s-1.82-0.9-3.13-0.9c-1.03,0-1.92,0.21-2.65,0.62c-0.74,0.41-1.34,1.05-1.81,1.92c-0.47,0.87-0.81,2-1.04,3.41
			c-0.22,1.41-0.33,3.13-0.33,5.17v3.41c0,1.81,0.16,3.33,0.47,4.59c0.32,1.25,0.79,2.27,1.42,3.06c0.63,0.79,1.41,1.35,2.32,1.71
			s1.98,0.53,3.2,0.53c1.83,0,3.43-0.33,4.82-0.98c1.38-0.66,2.58-1.56,3.59-2.71l3.76,5.52c-0.68,0.91-1.61,1.81-2.78,2.69
			c-1.17,0.88-2.58,1.6-4.22,2.16C241.91,208.15,239.98,208.43,237.78,208.43z"/>
		<path class="st0" d="M275.54,184.49l0.04,5.66h-3.8c-1.05,0-1.99,0.15-2.81,0.46c-0.82,0.3-1.51,0.74-2.06,1.3
			c-0.55,0.56-0.97,1.23-1.25,1.99c-0.28,0.76-0.42,1.61-0.42,2.55c0,1.05,0.15,1.92,0.46,2.6c0.3,0.68,0.75,1.2,1.34,1.55
			c0.58,0.35,1.29,0.53,2.11,0.53c1.22,0,2.27-0.26,3.16-0.77c0.89-0.52,1.56-1.13,2-1.85c0.44-0.71,0.61-1.38,0.49-1.99l2.04,3.59
			c-0.23,0.87-0.6,1.79-1.09,2.76s-1.12,1.88-1.88,2.71c-0.76,0.83-1.69,1.52-2.78,2.06s-2.37,0.81-3.85,0.81
			c-2.09,0-3.96-0.46-5.62-1.37c-1.67-0.91-2.98-2.21-3.96-3.9c-0.97-1.69-1.46-3.69-1.46-6.01c0-1.92,0.31-3.66,0.93-5.2
			c0.62-1.55,1.55-2.87,2.79-3.97c1.24-1.1,2.82-1.96,4.73-2.57c1.91-0.61,4.13-0.91,6.66-0.91H275.54z M274.38,199.5v-18.28
			c0-1.22-0.16-2.2-0.47-2.94s-0.78-1.28-1.39-1.62c-0.61-0.34-1.36-0.51-2.25-0.51c-0.94,0-1.74,0.19-2.41,0.58
			s-1.16,0.94-1.48,1.65c-0.32,0.72-0.47,1.55-0.47,2.51h-9.04c0-1.59,0.32-3.11,0.95-4.54c0.63-1.43,1.55-2.7,2.74-3.81
			c1.2-1.11,2.64-1.99,4.32-2.62s3.59-0.95,5.7-0.95c2.46,0,4.66,0.42,6.61,1.25c1.95,0.83,3.47,2.16,4.59,3.97
			c1.11,1.82,1.67,4.2,1.67,7.15v17.33c0,1.95,0.11,3.6,0.32,4.96s0.54,2.52,0.98,3.48v0.6h-9.14c-0.4-0.98-0.7-2.23-0.91-3.73
			S274.38,201,274.38,199.5z"/>
	</g>
</g>
</svg>
